<?xml version="1.0" standalone="no"?>
 <!DOCTYPE svg PUBLIC "-//W3C//DTD SVG 1.1//EN" 
 "http://www.w3.org/Graphics/SVG/1.1/DTD/svg11.dtd"> 
<svg xmlns="http://www.w3.org/2000/svg" version="1.1" 
    width="29.7002cm" height="21.0007cm" viewBox="0 0 116930 82680 ">
<title>SVG Picture created as ESP_DIP_MIN-B.Paste.svg date 2018/10/16 23:03:53 </title>
  <desc>Picture generated by PCBNEW </desc>
<g style="fill:#000000; fill-opacity:1;stroke:#000000; stroke-opacity:1;
stroke-linecap:round; stroke-linejoin:round; "
 transform="translate(0 0) scale(1 1)">
</g>
<g style="fill:#000000; fill-opacity:0.0; 
stroke:#000000; stroke-width:-0.000393701; stroke-opacity:1; 
stroke-linecap:round; stroke-linejoin:round;">
</g>
<g style="fill:#000000; fill-opacity:0.0; 
stroke:#000000; stroke-width:39.3701; stroke-opacity:1; 
stroke-linecap:round; stroke-linejoin:round;">
</g>
<g style="fill:#000000; fill-opacity:0.0; 
stroke:#000000; stroke-width:59.0551; stroke-opacity:1; 
stroke-linecap:round; stroke-linejoin:round;">
<rect x="69685.9" y="65357.2" width="42519.7" height="12598.4" rx="0" />
</g>
<g style="fill:#000000; fill-opacity:0.0; 
stroke:#000000; stroke-width:39.3701; stroke-opacity:1; 
stroke-linecap:round; stroke-linejoin:round;">
</g>
<g style="fill:#000000; fill-opacity:0.0; 
stroke:#000000; stroke-width:59.0551; stroke-opacity:1; 
stroke-linecap:round; stroke-linejoin:round;">
<rect x="3937.01" y="3937.01" width="109056" height="74806" rx="0" />
</g>
<g style="fill:#000000; fill-opacity:0.0; 
stroke:#000000; stroke-width:39.3701; stroke-opacity:1; 
stroke-linecap:round; stroke-linejoin:round;">
</g>
<g style="fill:#000000; fill-opacity:0.0; 
stroke:#000000; stroke-width:59.0551; stroke-opacity:1; 
stroke-linecap:round; stroke-linejoin:round;">
<rect x="4724.41" y="4724.41" width="107481" height="73231.2" rx="0" />
</g>
<g style="fill:#000000; fill-opacity:0.0; 
stroke:#000000; stroke-width:39.3701; stroke-opacity:1; 
stroke-linecap:round; stroke-linejoin:round;">
</g>
<g style="fill:#000000; fill-opacity:0.0; 
stroke:#000000; stroke-width:59.0551; stroke-opacity:1; 
stroke-linecap:round; stroke-linejoin:round;">
<path d="M23622 4724
L23622 3937
" />
</g>
<g style="fill:#000000; fill-opacity:0.0; 
stroke:#000000; stroke-width:39.3701; stroke-opacity:1; 
stroke-linecap:round; stroke-linejoin:round;">
</g>
<g style="fill:#000000; fill-opacity:0.0; 
stroke:#000000; stroke-width:59.0551; stroke-opacity:1; 
stroke-linecap:round; stroke-linejoin:round;">
<path d="M43307 4724
L43307 3937
" />
</g>
<g style="fill:#000000; fill-opacity:0.0; 
stroke:#000000; stroke-width:39.3701; stroke-opacity:1; 
stroke-linecap:round; stroke-linejoin:round;">
</g>
<g style="fill:#000000; fill-opacity:0.0; 
stroke:#000000; stroke-width:59.0551; stroke-opacity:1; 
stroke-linecap:round; stroke-linejoin:round;">
<path d="M62992 4724
L62992 3937
" />
</g>
<g style="fill:#000000; fill-opacity:0.0; 
stroke:#000000; stroke-width:39.3701; stroke-opacity:1; 
stroke-linecap:round; stroke-linejoin:round;">
</g>
<g style="fill:#000000; fill-opacity:0.0; 
stroke:#000000; stroke-width:59.0551; stroke-opacity:1; 
stroke-linecap:round; stroke-linejoin:round;">
<path d="M82677 4724
L82677 3937
" />
</g>
<g style="fill:#000000; fill-opacity:0.0; 
stroke:#000000; stroke-width:39.3701; stroke-opacity:1; 
stroke-linecap:round; stroke-linejoin:round;">
</g>
<g style="fill:#000000; fill-opacity:0.0; 
stroke:#000000; stroke-width:59.0551; stroke-opacity:1; 
stroke-linecap:round; stroke-linejoin:round;">
<path d="M102362 4724
L102362 3937
" />
</g>
<g style="fill:#000000; fill-opacity:0.0; 
stroke:#000000; stroke-width:39.3701; stroke-opacity:1; 
stroke-linecap:round; stroke-linejoin:round;">
</g>
<g style="fill:#000000; fill-opacity:0.0; 
stroke:#000000; stroke-width:59.0551; stroke-opacity:1; 
stroke-linecap:round; stroke-linejoin:round;">
<path d="M14199 4562
L13906 4562
" />
<path d="M14052 4562
L14052 4050
L14004 4123
L13955 4172
L13906 4196
" />
</g>
<g style="fill:#000000; fill-opacity:0.0; 
stroke:#000000; stroke-width:39.3701; stroke-opacity:1; 
stroke-linecap:round; stroke-linejoin:round;">
</g>
<g style="fill:#000000; fill-opacity:0.0; 
stroke:#000000; stroke-width:59.0551; stroke-opacity:1; 
stroke-linecap:round; stroke-linejoin:round;">
<path d="M33591 4099
L33615 4074
L33664 4050
L33786 4050
L33835 4074
L33859 4099
L33884 4147
L33884 4196
L33859 4269
L33567 4562
L33884 4562
" />
</g>
<g style="fill:#000000; fill-opacity:0.0; 
stroke:#000000; stroke-width:39.3701; stroke-opacity:1; 
stroke-linecap:round; stroke-linejoin:round;">
</g>
<g style="fill:#000000; fill-opacity:0.0; 
stroke:#000000; stroke-width:59.0551; stroke-opacity:1; 
stroke-linecap:round; stroke-linejoin:round;">
<path d="M53252 4050
L53569 4050
L53398 4245
L53471 4245
L53520 4269
L53544 4294
L53569 4342
L53569 4464
L53544 4513
L53520 4537
L53471 4562
L53325 4562
L53276 4537
L53252 4513
" />
</g>
<g style="fill:#000000; fill-opacity:0.0; 
stroke:#000000; stroke-width:39.3701; stroke-opacity:1; 
stroke-linecap:round; stroke-linejoin:round;">
</g>
<g style="fill:#000000; fill-opacity:0.0; 
stroke:#000000; stroke-width:59.0551; stroke-opacity:1; 
stroke-linecap:round; stroke-linejoin:round;">
<path d="M73205 4221
L73205 4562
" />
<path d="M73083 4026
L72961 4391
L73278 4391
" />
</g>
<g style="fill:#000000; fill-opacity:0.0; 
stroke:#000000; stroke-width:39.3701; stroke-opacity:1; 
stroke-linecap:round; stroke-linejoin:round;">
</g>
<g style="fill:#000000; fill-opacity:0.0; 
stroke:#000000; stroke-width:59.0551; stroke-opacity:1; 
stroke-linecap:round; stroke-linejoin:round;">
<path d="M92914 4050
L92671 4050
L92646 4294
L92671 4269
L92719 4245
L92841 4245
L92890 4269
L92914 4294
L92939 4342
L92939 4464
L92914 4513
L92890 4537
L92841 4562
L92719 4562
L92671 4537
L92646 4513
" />
</g>
<g style="fill:#000000; fill-opacity:0.0; 
stroke:#000000; stroke-width:39.3701; stroke-opacity:1; 
stroke-linecap:round; stroke-linejoin:round;">
</g>
<g style="fill:#000000; fill-opacity:0.0; 
stroke:#000000; stroke-width:59.0551; stroke-opacity:1; 
stroke-linecap:round; stroke-linejoin:round;">
<path d="M112575 4050
L112477 4050
L112429 4074
L112404 4099
L112356 4172
L112331 4269
L112331 4464
L112356 4513
L112380 4537
L112429 4562
L112526 4562
L112575 4537
L112599 4513
L112624 4464
L112624 4342
L112599 4294
L112575 4269
L112526 4245
L112429 4245
L112380 4269
L112356 4294
L112331 4342
" />
</g>
<g style="fill:#000000; fill-opacity:0.0; 
stroke:#000000; stroke-width:39.3701; stroke-opacity:1; 
stroke-linecap:round; stroke-linejoin:round;">
</g>
<g style="fill:#000000; fill-opacity:0.0; 
stroke:#000000; stroke-width:59.0551; stroke-opacity:1; 
stroke-linecap:round; stroke-linejoin:round;">
<path d="M23622 77955
L23622 78742
" />
</g>
<g style="fill:#000000; fill-opacity:0.0; 
stroke:#000000; stroke-width:39.3701; stroke-opacity:1; 
stroke-linecap:round; stroke-linejoin:round;">
</g>
<g style="fill:#000000; fill-opacity:0.0; 
stroke:#000000; stroke-width:59.0551; stroke-opacity:1; 
stroke-linecap:round; stroke-linejoin:round;">
<path d="M43307 77955
L43307 78742
" />
</g>
<g style="fill:#000000; fill-opacity:0.0; 
stroke:#000000; stroke-width:39.3701; stroke-opacity:1; 
stroke-linecap:round; stroke-linejoin:round;">
</g>
<g style="fill:#000000; fill-opacity:0.0; 
stroke:#000000; stroke-width:59.0551; stroke-opacity:1; 
stroke-linecap:round; stroke-linejoin:round;">
<path d="M62992 77955
L62992 78742
" />
</g>
<g style="fill:#000000; fill-opacity:0.0; 
stroke:#000000; stroke-width:39.3701; stroke-opacity:1; 
stroke-linecap:round; stroke-linejoin:round;">
</g>
<g style="fill:#000000; fill-opacity:0.0; 
stroke:#000000; stroke-width:59.0551; stroke-opacity:1; 
stroke-linecap:round; stroke-linejoin:round;">
<path d="M82677 77955
L82677 78742
" />
</g>
<g style="fill:#000000; fill-opacity:0.0; 
stroke:#000000; stroke-width:39.3701; stroke-opacity:1; 
stroke-linecap:round; stroke-linejoin:round;">
</g>
<g style="fill:#000000; fill-opacity:0.0; 
stroke:#000000; stroke-width:59.0551; stroke-opacity:1; 
stroke-linecap:round; stroke-linejoin:round;">
<path d="M102362 77955
L102362 78742
" />
</g>
<g style="fill:#000000; fill-opacity:0.0; 
stroke:#000000; stroke-width:39.3701; stroke-opacity:1; 
stroke-linecap:round; stroke-linejoin:round;">
</g>
<g style="fill:#000000; fill-opacity:0.0; 
stroke:#000000; stroke-width:59.0551; stroke-opacity:1; 
stroke-linecap:round; stroke-linejoin:round;">
<path d="M14199 78580
L13906 78580
" />
<path d="M14052 78580
L14052 78069
L14004 78142
L13955 78190
L13906 78215
" />
</g>
<g style="fill:#000000; fill-opacity:0.0; 
stroke:#000000; stroke-width:39.3701; stroke-opacity:1; 
stroke-linecap:round; stroke-linejoin:round;">
</g>
<g style="fill:#000000; fill-opacity:0.0; 
stroke:#000000; stroke-width:59.0551; stroke-opacity:1; 
stroke-linecap:round; stroke-linejoin:round;">
<path d="M33591 78117
L33615 78093
L33664 78069
L33786 78069
L33835 78093
L33859 78117
L33884 78166
L33884 78215
L33859 78288
L33567 78580
L33884 78580
" />
</g>
<g style="fill:#000000; fill-opacity:0.0; 
stroke:#000000; stroke-width:39.3701; stroke-opacity:1; 
stroke-linecap:round; stroke-linejoin:round;">
</g>
<g style="fill:#000000; fill-opacity:0.0; 
stroke:#000000; stroke-width:59.0551; stroke-opacity:1; 
stroke-linecap:round; stroke-linejoin:round;">
<path d="M53252 78069
L53569 78069
L53398 78263
L53471 78263
L53520 78288
L53544 78312
L53569 78361
L53569 78483
L53544 78532
L53520 78556
L53471 78580
L53325 78580
L53276 78556
L53252 78532
" />
</g>
<g style="fill:#000000; fill-opacity:0.0; 
stroke:#000000; stroke-width:39.3701; stroke-opacity:1; 
stroke-linecap:round; stroke-linejoin:round;">
</g>
<g style="fill:#000000; fill-opacity:0.0; 
stroke:#000000; stroke-width:59.0551; stroke-opacity:1; 
stroke-linecap:round; stroke-linejoin:round;">
<path d="M73205 78239
L73205 78580
" />
<path d="M73083 78044
L72961 78410
L73278 78410
" />
</g>
<g style="fill:#000000; fill-opacity:0.0; 
stroke:#000000; stroke-width:39.3701; stroke-opacity:1; 
stroke-linecap:round; stroke-linejoin:round;">
</g>
<g style="fill:#000000; fill-opacity:0.0; 
stroke:#000000; stroke-width:59.0551; stroke-opacity:1; 
stroke-linecap:round; stroke-linejoin:round;">
<path d="M92914 78069
L92671 78069
L92646 78312
L92671 78288
L92719 78263
L92841 78263
L92890 78288
L92914 78312
L92939 78361
L92939 78483
L92914 78532
L92890 78556
L92841 78580
L92719 78580
L92671 78556
L92646 78532
" />
</g>
<g style="fill:#000000; fill-opacity:0.0; 
stroke:#000000; stroke-width:39.3701; stroke-opacity:1; 
stroke-linecap:round; stroke-linejoin:round;">
</g>
<g style="fill:#000000; fill-opacity:0.0; 
stroke:#000000; stroke-width:59.0551; stroke-opacity:1; 
stroke-linecap:round; stroke-linejoin:round;">
<path d="M112575 78069
L112477 78069
L112429 78093
L112404 78117
L112356 78190
L112331 78288
L112331 78483
L112356 78532
L112380 78556
L112429 78580
L112526 78580
L112575 78556
L112599 78532
L112624 78483
L112624 78361
L112599 78312
L112575 78288
L112526 78263
L112429 78263
L112380 78288
L112356 78312
L112331 78361
" />
</g>
<g style="fill:#000000; fill-opacity:0.0; 
stroke:#000000; stroke-width:39.3701; stroke-opacity:1; 
stroke-linecap:round; stroke-linejoin:round;">
</g>
<g style="fill:#000000; fill-opacity:0.0; 
stroke:#000000; stroke-width:59.0551; stroke-opacity:1; 
stroke-linecap:round; stroke-linejoin:round;">
<path d="M3937 23622
L4724 23622
" />
</g>
<g style="fill:#000000; fill-opacity:0.0; 
stroke:#000000; stroke-width:39.3701; stroke-opacity:1; 
stroke-linecap:round; stroke-linejoin:round;">
</g>
<g style="fill:#000000; fill-opacity:0.0; 
stroke:#000000; stroke-width:59.0551; stroke-opacity:1; 
stroke-linecap:round; stroke-linejoin:round;">
<path d="M3937 43307
L4724 43307
" />
</g>
<g style="fill:#000000; fill-opacity:0.0; 
stroke:#000000; stroke-width:39.3701; stroke-opacity:1; 
stroke-linecap:round; stroke-linejoin:round;">
</g>
<g style="fill:#000000; fill-opacity:0.0; 
stroke:#000000; stroke-width:59.0551; stroke-opacity:1; 
stroke-linecap:round; stroke-linejoin:round;">
<path d="M3937 62992
L4724 62992
" />
</g>
<g style="fill:#000000; fill-opacity:0.0; 
stroke:#000000; stroke-width:39.3701; stroke-opacity:1; 
stroke-linecap:round; stroke-linejoin:round;">
</g>
<g style="fill:#000000; fill-opacity:0.0; 
stroke:#000000; stroke-width:59.0551; stroke-opacity:1; 
stroke-linecap:round; stroke-linejoin:round;">
<path d="M4208 13864
L4452 13864
" />
<path d="M4160 14011
L4330 13499
L4501 14011
" />
</g>
<g style="fill:#000000; fill-opacity:0.0; 
stroke:#000000; stroke-width:39.3701; stroke-opacity:1; 
stroke-linecap:round; stroke-linejoin:round;">
</g>
<g style="fill:#000000; fill-opacity:0.0; 
stroke:#000000; stroke-width:59.0551; stroke-opacity:1; 
stroke-linecap:round; stroke-linejoin:round;">
<path d="M4367 33428
L4440 33452
L4464 33476
L4489 33525
L4489 33598
L4464 33647
L4440 33671
L4391 33696
L4196 33696
L4196 33184
L4367 33184
L4416 33208
L4440 33233
L4464 33281
L4464 33330
L4440 33379
L4416 33403
L4367 33428
L4196 33428
" />
</g>
<g style="fill:#000000; fill-opacity:0.0; 
stroke:#000000; stroke-width:39.3701; stroke-opacity:1; 
stroke-linecap:round; stroke-linejoin:round;">
</g>
<g style="fill:#000000; fill-opacity:0.0; 
stroke:#000000; stroke-width:59.0551; stroke-opacity:1; 
stroke-linecap:round; stroke-linejoin:round;">
<path d="M4489 53332
L4464 53356
L4391 53381
L4342 53381
L4269 53356
L4221 53308
L4196 53259
L4172 53161
L4172 53088
L4196 52991
L4221 52942
L4269 52893
L4342 52869
L4391 52869
L4464 52893
L4489 52918
" />
</g>
<g style="fill:#000000; fill-opacity:0.0; 
stroke:#000000; stroke-width:39.3701; stroke-opacity:1; 
stroke-linecap:round; stroke-linejoin:round;">
</g>
<g style="fill:#000000; fill-opacity:0.0; 
stroke:#000000; stroke-width:59.0551; stroke-opacity:1; 
stroke-linecap:round; stroke-linejoin:round;">
<path d="M4196 73066
L4196 72554
L4318 72554
L4391 72578
L4440 72627
L4464 72676
L4489 72773
L4489 72846
L4464 72944
L4440 72993
L4391 73041
L4318 73066
L4196 73066
" />
</g>
<g style="fill:#000000; fill-opacity:0.0; 
stroke:#000000; stroke-width:39.3701; stroke-opacity:1; 
stroke-linecap:round; stroke-linejoin:round;">
</g>
<g style="fill:#000000; fill-opacity:0.0; 
stroke:#000000; stroke-width:59.0551; stroke-opacity:1; 
stroke-linecap:round; stroke-linejoin:round;">
<path d="M112992 23622
L112205 23622
" />
</g>
<g style="fill:#000000; fill-opacity:0.0; 
stroke:#000000; stroke-width:39.3701; stroke-opacity:1; 
stroke-linecap:round; stroke-linejoin:round;">
</g>
<g style="fill:#000000; fill-opacity:0.0; 
stroke:#000000; stroke-width:59.0551; stroke-opacity:1; 
stroke-linecap:round; stroke-linejoin:round;">
<path d="M112992 43307
L112205 43307
" />
</g>
<g style="fill:#000000; fill-opacity:0.0; 
stroke:#000000; stroke-width:39.3701; stroke-opacity:1; 
stroke-linecap:round; stroke-linejoin:round;">
</g>
<g style="fill:#000000; fill-opacity:0.0; 
stroke:#000000; stroke-width:59.0551; stroke-opacity:1; 
stroke-linecap:round; stroke-linejoin:round;">
<path d="M112992 62992
L112205 62992
" />
</g>
<g style="fill:#000000; fill-opacity:0.0; 
stroke:#000000; stroke-width:39.3701; stroke-opacity:1; 
stroke-linecap:round; stroke-linejoin:round;">
</g>
<g style="fill:#000000; fill-opacity:0.0; 
stroke:#000000; stroke-width:59.0551; stroke-opacity:1; 
stroke-linecap:round; stroke-linejoin:round;">
<path d="M112477 13864
L112721 13864
" />
<path d="M112428 14011
L112599 13499
L112769 14011
" />
</g>
<g style="fill:#000000; fill-opacity:0.0; 
stroke:#000000; stroke-width:39.3701; stroke-opacity:1; 
stroke-linecap:round; stroke-linejoin:round;">
</g>
<g style="fill:#000000; fill-opacity:0.0; 
stroke:#000000; stroke-width:59.0551; stroke-opacity:1; 
stroke-linecap:round; stroke-linejoin:round;">
<path d="M112635 33428
L112708 33452
L112733 33476
L112757 33525
L112757 33598
L112733 33647
L112708 33671
L112660 33696
L112465 33696
L112465 33184
L112635 33184
L112684 33208
L112708 33233
L112733 33281
L112733 33330
L112708 33379
L112684 33403
L112635 33428
L112465 33428
" />
</g>
<g style="fill:#000000; fill-opacity:0.0; 
stroke:#000000; stroke-width:39.3701; stroke-opacity:1; 
stroke-linecap:round; stroke-linejoin:round;">
</g>
<g style="fill:#000000; fill-opacity:0.0; 
stroke:#000000; stroke-width:59.0551; stroke-opacity:1; 
stroke-linecap:round; stroke-linejoin:round;">
<path d="M112757 53332
L112733 53356
L112660 53381
L112611 53381
L112538 53356
L112489 53308
L112465 53259
L112440 53161
L112440 53088
L112465 52991
L112489 52942
L112538 52893
L112611 52869
L112660 52869
L112733 52893
L112757 52918
" />
</g>
<g style="fill:#000000; fill-opacity:0.0; 
stroke:#000000; stroke-width:39.3701; stroke-opacity:1; 
stroke-linecap:round; stroke-linejoin:round;">
</g>
<g style="fill:#000000; fill-opacity:0.0; 
stroke:#000000; stroke-width:59.0551; stroke-opacity:1; 
stroke-linecap:round; stroke-linejoin:round;">
<path d="M112465 73066
L112465 72554
L112587 72554
L112660 72578
L112708 72627
L112733 72676
L112757 72773
L112757 72846
L112733 72944
L112708 72993
L112660 73041
L112587 73066
L112465 73066
" />
</g>
<g style="fill:#000000; fill-opacity:0.0; 
stroke:#000000; stroke-width:39.3701; stroke-opacity:1; 
stroke-linecap:round; stroke-linejoin:round;">
</g>
<g style="fill:#000000; fill-opacity:0.0; 
stroke:#000000; stroke-width:59.0551; stroke-opacity:1; 
stroke-linecap:round; stroke-linejoin:round;">
<path d="M78911 76293
L78911 75703
L79051 75703
L79136 75731
L79192 75787
L79220 75843
L79248 75956
L79248 76040
L79220 76153
L79192 76209
L79136 76265
L79051 76293
L78911 76293
" />
<path d="M79754 76293
L79754 75984
L79726 75928
L79670 75899
L79557 75899
L79501 75928
" />
<path d="M79754 76265
L79698 76293
L79557 76293
L79501 76265
L79473 76209
L79473 76153
L79501 76096
L79557 76068
L79698 76068
L79754 76040
" />
<path d="M79951 75899
L80176 75899
" />
<path d="M80036 75703
L80036 76209
L80064 76265
L80120 76293
L80176 76293
" />
<path d="M80598 76265
L80542 76293
L80429 76293
L80373 76265
L80345 76209
L80345 75984
L80373 75928
L80429 75899
L80542 75899
L80598 75928
L80626 75984
L80626 76040
L80345 76096
" />
<path d="M80879 76237
L80907 76265
L80879 76293
L80851 76265
L80879 76237
L80879 76293
" />
<path d="M80879 75928
L80907 75956
L80879 75984
L80851 75956
L80879 75928
L80879 75984
" />
<path d="M81582 75759
L81610 75731
L81667 75703
L81807 75703
L81863 75731
L81892 75759
L81920 75815
L81920 75871
L81892 75956
L81554 76293
L81920 76293
" />
<path d="M82285 75703
L82341 75703
L82398 75731
L82426 75759
L82454 75815
L82482 75928
L82482 76068
L82454 76181
L82426 76237
L82398 76265
L82341 76293
L82285 76293
L82229 76265
L82201 76237
L82173 76181
L82145 76068
L82145 75928
L82173 75815
L82201 75759
L82229 75731
L82285 75703
" />
<path d="M83045 76293
L82707 76293
" />
<path d="M82876 76293
L82876 75703
L82820 75787
L82763 75843
L82707 75871
" />
<path d="M83382 75956
L83326 75928
L83298 75899
L83269 75843
L83269 75815
L83298 75759
L83326 75731
L83382 75703
L83494 75703
L83551 75731
L83579 75759
L83607 75815
L83607 75843
L83579 75899
L83551 75928
L83494 75956
L83382 75956
L83326 75984
L83298 76012
L83269 76068
L83269 76181
L83298 76237
L83326 76265
L83382 76293
L83494 76293
L83551 76265
L83579 76237
L83607 76181
L83607 76068
L83579 76012
L83551 75984
L83494 75956
" />
<path d="M83860 76068
L84310 76068
" />
<path d="M84901 76293
L84563 76293
" />
<path d="M84732 76293
L84732 75703
L84676 75787
L84619 75843
L84563 75871
" />
<path d="M85266 75703
L85322 75703
L85379 75731
L85407 75759
L85435 75815
L85463 75928
L85463 76068
L85435 76181
L85407 76237
L85379 76265
L85322 76293
L85266 76293
L85210 76265
L85182 76237
L85154 76181
L85126 76068
L85126 75928
L85154 75815
L85182 75759
L85210 75731
L85266 75703
" />
<path d="M85716 76068
L86166 76068
" />
<path d="M86757 76293
L86419 76293
" />
<path d="M86588 76293
L86588 75703
L86532 75787
L86475 75843
L86419 75871
" />
<path d="M87263 75703
L87150 75703
L87094 75731
L87066 75759
L87010 75843
L86982 75956
L86982 76181
L87010 76237
L87038 76265
L87094 76293
L87206 76293
L87263 76265
L87291 76237
L87319 76181
L87319 76040
L87291 75984
L87263 75956
L87206 75928
L87094 75928
L87038 75956
L87010 75984
L86982 76040
" />
</g>
<g style="fill:#000000; fill-opacity:0.0; 
stroke:#000000; stroke-width:39.3701; stroke-opacity:1; 
stroke-linecap:round; stroke-linejoin:round;">
</g>
<g style="fill:#000000; fill-opacity:0.0; 
stroke:#000000; stroke-width:59.0551; stroke-opacity:1; 
stroke-linecap:round; stroke-linejoin:round;">
<path d="M69685 76577
L112205 76577
" />
</g>
<g style="fill:#000000; fill-opacity:0.0; 
stroke:#000000; stroke-width:39.3701; stroke-opacity:1; 
stroke-linecap:round; stroke-linejoin:round;">
</g>
<g style="fill:#000000; fill-opacity:0.0; 
stroke:#000000; stroke-width:59.0551; stroke-opacity:1; 
stroke-linecap:round; stroke-linejoin:round;">
<path d="M70249 77395
L70249 76805
" />
<path d="M70587 77395
L70334 77058
" />
<path d="M70587 76805
L70249 77142
" />
<path d="M70840 77395
L70840 77002
" />
<path d="M70840 76805
L70812 76833
L70840 76861
L70868 76833
L70840 76805
L70840 76861
" />
<path d="M71458 77339
L71430 77367
L71346 77395
L71290 77395
L71205 77367
L71149 77311
L71121 77255
L71093 77142
L71093 77058
L71121 76946
L71149 76889
L71205 76833
L71290 76805
L71346 76805
L71430 76833
L71458 76861
" />
<path d="M71965 77395
L71965 77086
L71937 77030
L71880 77002
L71768 77002
L71712 77030
" />
<path d="M71965 77367
L71908 77395
L71768 77395
L71712 77367
L71683 77311
L71683 77255
L71712 77199
L71768 77171
L71908 77171
L71965 77142
" />
<path d="M72499 77395
L72499 76805
" />
<path d="M72499 77367
L72443 77395
L72330 77395
L72274 77367
L72246 77339
L72218 77283
L72218 77114
L72246 77058
L72274 77030
L72330 77002
L72443 77002
L72499 77030
" />
<path d="M73230 77086
L73427 77086
" />
<path d="M73511 77395
L73230 77395
L73230 76805
L73511 76805
" />
<path d="M73764 77339
L73793 77367
L73764 77395
L73736 77367
L73764 77339
L73764 77395
" />
<path d="M74046 77395
L74046 76805
L74186 76805
L74271 76833
L74327 76889
L74355 76946
L74383 77058
L74383 77142
L74355 77255
L74327 77311
L74271 77367
L74186 77395
L74046 77395
" />
<path d="M74636 77339
L74664 77367
L74636 77395
L74608 77367
L74636 77339
L74636 77395
" />
<path d="M74889 77227
L75171 77227
" />
<path d="M74833 77395
L75030 76805
L75227 77395
" />
<path d="M75424 77339
L75452 77367
L75424 77395
L75395 77367
L75424 77339
L75424 77395
" />
<path d="M76605 77395
L76605 76805
" />
<path d="M76661 77171
L76830 77395
" />
<path d="M76830 77002
L76605 77227
" />
<path d="M77083 77395
L77083 77002
" />
<path d="M77083 76805
L77055 76833
L77083 76861
L77111 76833
L77083 76805
L77083 76861
" />
<path d="M77617 77367
L77561 77395
L77448 77395
L77392 77367
L77364 77339
L77336 77283
L77336 77114
L77364 77058
L77392 77030
L77448 77002
L77561 77002
L77617 77030
" />
<path d="M78123 77395
L78123 77086
L78095 77030
L78039 77002
L77926 77002
L77870 77030
" />
<path d="M78123 77367
L78067 77395
L77926 77395
L77870 77367
L77842 77311
L77842 77255
L77870 77199
L77926 77171
L78067 77171
L78123 77142
" />
<path d="M78658 77395
L78658 76805
" />
<path d="M78658 77367
L78601 77395
L78489 77395
L78433 77367
L78404 77339
L78376 77283
L78376 77114
L78404 77058
L78433 77030
L78489 77002
L78601 77002
L78658 77030
" />
<path d="M79670 76805
L79389 76805
L79361 77086
L79389 77058
L79445 77030
L79586 77030
L79642 77058
L79670 77086
L79698 77142
L79698 77283
L79670 77339
L79642 77367
L79586 77395
L79445 77395
L79389 77367
L79361 77339
" />
<path d="M79951 77339
L79979 77367
L79951 77395
L79923 77367
L79951 77339
L79951 77395
" />
<path d="M80345 76805
L80401 76805
L80457 76833
L80485 76861
L80514 76917
L80542 77030
L80542 77171
L80514 77283
L80485 77339
L80457 77367
L80401 77395
L80345 77395
L80289 77367
L80260 77339
L80232 77283
L80204 77171
L80204 77030
L80232 76917
L80260 76861
L80289 76833
L80345 76805
" />
<path d="M80795 77339
L80823 77367
L80795 77395
L80767 77367
L80795 77339
L80795 77395
" />
<path d="M81188 76805
L81245 76805
L81301 76833
L81329 76861
L81357 76917
L81385 77030
L81385 77171
L81357 77283
L81329 77339
L81301 77367
L81245 77395
L81188 77395
L81132 77367
L81104 77339
L81076 77283
L81048 77171
L81048 77030
L81076 76917
L81104 76861
L81132 76833
L81188 76805
" />
<path d="M81638 77171
L82088 77171
" />
<path d="M82285 77002
L82510 77002
" />
<path d="M82370 77395
L82370 76889
L82398 76833
L82454 76805
L82510 76805
" />
<path d="M82932 77367
L82876 77395
L82763 77395
L82707 77367
L82679 77311
L82679 77086
L82707 77030
L82763 77002
L82876 77002
L82932 77030
L82960 77086
L82960 77142
L82679 77199
" />
<path d="M83438 77367
L83382 77395
L83269 77395
L83213 77367
L83185 77311
L83185 77086
L83213 77030
L83269 77002
L83382 77002
L83438 77030
L83466 77086
L83466 77142
L83185 77199
" />
<path d="M83973 77002
L83973 77395
" />
<path d="M83832 76777
L83691 77199
L84057 77199
" />
<path d="M84197 77002
L84422 77002
" />
<path d="M84282 77395
L84282 76889
L84310 76833
L84366 76805
L84422 76805
" />
<path d="M84872 77395
L84872 76805
" />
<path d="M84872 77367
L84816 77395
L84704 77395
L84647 77367
L84619 77339
L84591 77283
L84591 77114
L84619 77058
L84647 77030
L84704 77002
L84816 77002
L84872 77030
" />
<path d="M85463 77395
L85126 77395
" />
<path d="M85294 77395
L85294 76805
L85238 76889
L85182 76946
L85126 76974
" />
<path d="M85575 76644
L86138 76644
" />
<path d="M85969 76805
L85857 76805
L85800 76833
L85772 76861
L85716 76946
L85688 77058
L85688 77283
L85716 77339
L85744 77367
L85800 77395
L85913 77395
L85969 77367
L85997 77339
L86025 77283
L86025 77142
L85997 77086
L85969 77058
L85913 77030
L85800 77030
L85744 77058
L85716 77086
L85688 77142
" />
<path d="M86138 76644
L86700 76644
" />
<path d="M86532 76805
L86419 76805
L86363 76833
L86335 76861
L86278 76946
L86250 77058
L86250 77283
L86278 77339
L86307 77367
L86363 77395
L86475 77395
L86532 77367
L86560 77339
L86588 77283
L86588 77142
L86560 77086
L86532 77058
L86475 77030
L86363 77030
L86307 77058
L86278 77086
L86250 77142
" />
<path d="M87094 77002
L87094 77395
" />
<path d="M86841 77002
L86841 77311
L86869 77367
L86925 77395
L87010 77395
L87066 77367
L87094 77339
" />
<path d="M87375 77395
L87375 76805
" />
<path d="M87375 77030
L87431 77002
L87544 77002
L87600 77030
L87628 77058
L87656 77114
L87656 77283
L87628 77339
L87600 77367
L87544 77395
L87431 77395
L87375 77367
" />
<path d="M88163 77002
L88163 77395
" />
<path d="M87910 77002
L87910 77311
L87938 77367
L87994 77395
L88078 77395
L88135 77367
L88163 77339
" />
<path d="M88444 77002
L88444 77395
" />
<path d="M88444 77058
L88472 77030
L88528 77002
L88613 77002
L88669 77030
L88697 77086
L88697 77395
" />
<path d="M88894 77002
L89119 77002
" />
<path d="M88978 76805
L88978 77311
L89006 77367
L89063 77395
L89119 77395
" />
<path d="M89569 77002
L89569 77395
" />
<path d="M89316 77002
L89316 77311
L89344 77367
L89400 77395
L89484 77395
L89541 77367
L89569 77339
" />
<path d="M90159 77395
L89822 77395
" />
<path d="M89991 77395
L89991 76805
L89934 76889
L89878 76946
L89822 76974
" />
<path d="M90665 76805
L90553 76805
L90497 76833
L90469 76861
L90412 76946
L90384 77058
L90384 77283
L90412 77339
L90440 77367
L90497 77395
L90609 77395
L90665 77367
L90694 77339
L90722 77283
L90722 77142
L90694 77086
L90665 77058
L90609 77030
L90497 77030
L90440 77058
L90412 77086
L90384 77142
" />
<path d="M90975 77339
L91003 77367
L90975 77395
L90947 77367
L90975 77339
L90975 77395
" />
<path d="M91368 76805
L91425 76805
L91481 76833
L91509 76861
L91537 76917
L91565 77030
L91565 77171
L91537 77283
L91509 77339
L91481 77367
L91425 77395
L91368 77395
L91312 77367
L91284 77339
L91256 77283
L91228 77171
L91228 77030
L91256 76917
L91284 76861
L91312 76833
L91368 76805
" />
<path d="M92072 77002
L92072 77395
" />
<path d="M91931 76777
L91790 77199
L92156 77199
" />
<path d="M92381 77339
L92409 77367
L92381 77395
L92353 77367
L92381 77339
L92381 77395
" />
<path d="M92971 77395
L92634 77395
" />
<path d="M92803 77395
L92803 76805
L92746 76889
L92690 76946
L92634 76974
" />
</g>
<g style="fill:#000000; fill-opacity:0.0; 
stroke:#000000; stroke-width:39.3701; stroke-opacity:1; 
stroke-linecap:round; stroke-linejoin:round;">
</g>
<g style="fill:#000000; fill-opacity:0.0; 
stroke:#000000; stroke-width:59.0551; stroke-opacity:1; 
stroke-linecap:round; stroke-linejoin:round;">
<path d="M69685 75396
L112205 75396
" />
</g>
<g style="fill:#000000; fill-opacity:0.0; 
stroke:#000000; stroke-width:39.3701; stroke-opacity:1; 
stroke-linecap:round; stroke-linejoin:round;">
</g>
<g style="fill:#000000; fill-opacity:0.0; 
stroke:#000000; stroke-width:118.11; stroke-opacity:1; 
stroke-linecap:round; stroke-linejoin:round;">
<path d="M104099 76293
L103902 76012
" />
<path d="M103761 76293
L103761 75703
L103986 75703
L104042 75731
L104070 75759
L104099 75815
L104099 75899
L104070 75956
L104042 75984
L103986 76012
L103761 76012
" />
<path d="M104577 76265
L104520 76293
L104408 76293
L104352 76265
L104323 76209
L104323 75984
L104352 75928
L104408 75899
L104520 75899
L104577 75928
L104605 75984
L104605 76040
L104323 76096
" />
<path d="M104802 75899
L104942 76293
L105083 75899
" />
<path d="M105308 76237
L105336 76265
L105308 76293
L105280 76265
L105308 76237
L105308 76293
" />
<path d="M105308 75928
L105336 75956
L105308 75984
L105280 75956
L105308 75928
L105308 75984
" />
</g>
<g style="fill:#000000; fill-opacity:0.0; 
stroke:#000000; stroke-width:39.3701; stroke-opacity:1; 
stroke-linecap:round; stroke-linejoin:round;">
</g>
<g style="fill:#000000; fill-opacity:0.0; 
stroke:#000000; stroke-width:59.0551; stroke-opacity:1; 
stroke-linecap:round; stroke-linejoin:round;">
<path d="M70221 76265
L70305 76293
L70446 76293
L70502 76265
L70530 76237
L70559 76181
L70559 76124
L70530 76068
L70502 76040
L70446 76012
L70334 75984
L70277 75956
L70249 75928
L70221 75871
L70221 75815
L70249 75759
L70277 75731
L70334 75703
L70474 75703
L70559 75731
" />
<path d="M70812 76293
L70812 75899
" />
<path d="M70812 75703
L70784 75731
L70812 75759
L70840 75731
L70812 75703
L70812 75759
" />
<path d="M71037 75899
L71346 75899
L71037 76293
L71346 76293
" />
<path d="M71796 76265
L71740 76293
L71627 76293
L71571 76265
L71543 76209
L71543 75984
L71571 75928
L71627 75899
L71740 75899
L71796 75928
L71824 75984
L71824 76040
L71543 76096
" />
<path d="M72077 76237
L72105 76265
L72077 76293
L72049 76265
L72077 76237
L72077 76293
" />
<path d="M72077 75928
L72105 75956
L72077 75984
L72049 75956
L72077 75928
L72077 75984
" />
<path d="M72780 76124
L73061 76124
" />
<path d="M72724 76293
L72921 75703
L73118 76293
" />
<path d="M73568 75899
L73568 76293
" />
<path d="M73427 75674
L73286 76096
L73652 76096
" />
</g>
<g style="fill:#000000; fill-opacity:0.0; 
stroke:#000000; stroke-width:39.3701; stroke-opacity:1; 
stroke-linecap:round; stroke-linejoin:round;">
</g>
<g style="fill:#000000; fill-opacity:0.0; 
stroke:#000000; stroke-width:59.0551; stroke-opacity:1; 
stroke-linecap:round; stroke-linejoin:round;">
<path d="M103714 77395
L103714 76805
" />
<path d="M104248 77395
L104248 76805
" />
<path d="M104248 77367
L104192 77395
L104079 77395
L104023 77367
L103995 77339
L103967 77283
L103967 77114
L103995 77058
L104023 77030
L104079 77002
L104192 77002
L104248 77030
" />
<path d="M104529 77339
L104557 77367
L104529 77395
L104501 77367
L104529 77339
L104529 77395
" />
<path d="M104529 77030
L104557 77058
L104529 77086
L104501 77058
L104529 77030
L104529 77086
" />
<path d="M105570 77395
L105232 77395
" />
<path d="M105401 77395
L105401 76805
L105345 76889
L105289 76946
L105232 76974
" />
<path d="M106245 76777
L105739 77536
" />
<path d="M106751 77395
L106413 77395
" />
<path d="M106582 77395
L106582 76805
L106526 76889
L106470 76946
L106413 76974
" />
</g>
<g style="fill:#000000; fill-opacity:0.0; 
stroke:#000000; stroke-width:39.3701; stroke-opacity:1; 
stroke-linecap:round; stroke-linejoin:round;">
</g>
<g style="fill:#000000; fill-opacity:0.0; 
stroke:#000000; stroke-width:59.0551; stroke-opacity:1; 
stroke-linecap:round; stroke-linejoin:round;">
<path d="M69685 73821
L112205 73821
" />
</g>
<g style="fill:#000000; fill-opacity:0.0; 
stroke:#000000; stroke-width:39.3701; stroke-opacity:1; 
stroke-linecap:round; stroke-linejoin:round;">
</g>
<g style="fill:#000000; fill-opacity:0.0; 
stroke:#000000; stroke-width:157.48; stroke-opacity:1; 
stroke-linecap:round; stroke-linejoin:round;">
<path d="M70360 74099
L70810 74099
" />
<path d="M70486 74886
L70585 74099
" />
<path d="M70974 74886
L71039 74361
" />
<path d="M71072 74099
L71030 74136
L71063 74174
L71105 74136
L71072 74099
L71063 74174
" />
<path d="M71302 74361
L71602 74361
" />
<path d="M71447 74099
L71363 74774
L71391 74849
L71461 74886
L71536 74886
" />
<path d="M71911 74886
L71841 74849
L71813 74774
L71897 74099
" />
<path d="M72516 74849
L72436 74886
L72286 74886
L72216 74849
L72187 74774
L72225 74474
L72272 74399
L72352 74361
L72501 74361
L72572 74399
L72600 74474
L72591 74549
L72206 74624
" />
<path d="M72895 74811
L72928 74849
L72886 74886
L72853 74849
L72895 74811
L72886 74886
" />
<path d="M72947 74399
L72980 74436
L72937 74474
L72905 74436
L72947 74399
L72937 74474
" />
<path d="M73912 74474
L74175 74474
" />
<path d="M74236 74886
L73861 74886
L73959 74099
L74334 74099
" />
<path d="M74540 74849
L74648 74886
L74836 74886
L74915 74849
L74957 74811
L75004 74736
L75014 74661
L74986 74586
L74953 74549
L74882 74511
L74737 74474
L74667 74436
L74634 74399
L74606 74324
L74615 74249
L74662 74174
L74704 74136
L74784 74099
L74971 74099
L75079 74136
" />
<path d="M75323 74886
L75421 74099
L75721 74099
L75792 74136
L75825 74174
L75853 74249
L75839 74361
L75792 74436
L75750 74474
L75670 74511
L75370 74511
" />
<path d="M75914 74961
L76513 74961
" />
<path d="M76710 74886
L76809 74099
L76996 74099
L77104 74136
L77170 74211
L77198 74286
L77217 74436
L77202 74549
L77146 74699
L77099 74774
L77015 74849
L76898 74886
L76710 74886
" />
<path d="M77498 74886
L77596 74099
" />
<path d="M77873 74886
L77971 74099
L78271 74099
L78341 74136
L78374 74174
L78402 74249
L78388 74361
L78341 74436
L78299 74474
L78220 74511
L77920 74511
" />
<path d="M78463 74961
L79063 74961
" />
<path d="M79260 74886
L79358 74099
L79551 74661
L79883 74099
L79785 74886
" />
<path d="M80160 74886
L80258 74099
" />
<path d="M80535 74886
L80633 74099
L80985 74886
L81083 74099
" />
</g>
<g style="fill:#000000; fill-opacity:0.0; 
stroke:#000000; stroke-width:39.3701; stroke-opacity:1; 
stroke-linecap:round; stroke-linejoin:round;">
</g>
<g style="fill:#000000; fill-opacity:0.0; 
stroke:#000000; stroke-width:59.0551; stroke-opacity:1; 
stroke-linecap:round; stroke-linejoin:round;">
<path d="M70446 73070
L70249 73070
" />
<path d="M70249 73380
L70249 72789
L70530 72789
" />
<path d="M70755 73380
L70755 72986
" />
<path d="M70755 72789
L70727 72817
L70755 72845
L70784 72817
L70755 72789
L70755 72845
" />
<path d="M71121 73380
L71065 73352
L71037 73295
L71037 72789
" />
<path d="M71571 73352
L71515 73380
L71402 73380
L71346 73352
L71318 73295
L71318 73070
L71346 73014
L71402 72986
L71515 72986
L71571 73014
L71599 73070
L71599 73127
L71318 73183
" />
<path d="M71852 73323
L71880 73352
L71852 73380
L71824 73352
L71852 73323
L71852 73380
" />
<path d="M71852 73014
L71880 73042
L71852 73070
L71824 73042
L71852 73014
L71852 73070
" />
<path d="M72583 73070
L72780 73070
" />
<path d="M72865 73380
L72583 73380
L72583 72789
L72865 72789
" />
<path d="M73090 73352
L73174 73380
L73314 73380
L73371 73352
L73399 73323
L73427 73267
L73427 73211
L73399 73155
L73371 73127
L73314 73099
L73202 73070
L73146 73042
L73118 73014
L73090 72958
L73090 72902
L73118 72845
L73146 72817
L73202 72789
L73343 72789
L73427 72817
" />
<path d="M73680 73380
L73680 72789
L73905 72789
L73961 72817
L73989 72845
L74018 72902
L74018 72986
L73989 73042
L73961 73070
L73905 73099
L73680 73099
" />
<path d="M74130 73436
L74580 73436
" />
<path d="M74721 73380
L74721 72789
L74861 72789
L74946 72817
L75002 72874
L75030 72930
L75058 73042
L75058 73127
L75030 73239
L75002 73295
L74946 73352
L74861 73380
L74721 73380
" />
<path d="M75311 73380
L75311 72789
" />
<path d="M75592 73380
L75592 72789
L75817 72789
L75874 72817
L75902 72845
L75930 72902
L75930 72986
L75902 73042
L75874 73070
L75817 73099
L75592 73099
" />
<path d="M76042 73436
L76492 73436
" />
<path d="M76633 73380
L76633 72789
L76830 73211
L77027 72789
L77027 73380
" />
<path d="M77308 73380
L77308 72789
" />
<path d="M77589 73380
L77589 72789
L77926 73380
L77926 72789
" />
<path d="M78208 73323
L78236 73352
L78208 73380
L78180 73352
L78208 73323
L78208 73380
" />
<path d="M78489 73380
L78489 72789
" />
<path d="M78545 73155
L78714 73380
" />
<path d="M78714 72986
L78489 73211
" />
<path d="M78967 73380
L78967 72986
" />
<path d="M78967 72789
L78939 72817
L78967 72845
L78995 72817
L78967 72789
L78967 72845
" />
<path d="M79501 73352
L79445 73380
L79332 73380
L79276 73352
L79248 73323
L79220 73267
L79220 73099
L79248 73042
L79276 73014
L79332 72986
L79445 72986
L79501 73014
" />
<path d="M80007 73380
L80007 73070
L79979 73014
L79923 72986
L79811 72986
L79754 73014
" />
<path d="M80007 73352
L79951 73380
L79811 73380
L79754 73352
L79726 73295
L79726 73239
L79754 73183
L79811 73155
L79951 73155
L80007 73127
" />
<path d="M80542 73380
L80542 72789
" />
<path d="M80542 73352
L80485 73380
L80373 73380
L80317 73352
L80289 73323
L80260 73267
L80260 73099
L80289 73042
L80317 73014
L80373 72986
L80485 72986
L80542 73014
" />
<path d="M80682 73436
L81132 73436
" />
<path d="M81273 72986
L81273 73577
" />
<path d="M81273 73014
L81329 72986
L81442 72986
L81498 73014
L81526 73042
L81554 73099
L81554 73267
L81526 73323
L81498 73352
L81442 73380
L81329 73380
L81273 73352
" />
<path d="M82060 73352
L82004 73380
L81892 73380
L81835 73352
L81807 73323
L81779 73267
L81779 73099
L81807 73042
L81835 73014
L81892 72986
L82004 72986
L82060 73014
" />
<path d="M82313 73380
L82313 72789
" />
<path d="M82313 73014
L82370 72986
L82482 72986
L82538 73014
L82566 73042
L82595 73099
L82595 73267
L82566 73323
L82538 73352
L82482 73380
L82370 73380
L82313 73352
" />
</g>
<g style="fill:#000000; fill-opacity:0.0; 
stroke:#000000; stroke-width:39.3701; stroke-opacity:1; 
stroke-linecap:round; stroke-linejoin:round;">
</g>
<g style="fill:#000000; fill-opacity:0.0; 
stroke:#000000; stroke-width:59.0551; stroke-opacity:1; 
stroke-linecap:round; stroke-linejoin:round;">
<path d="M69685 71459
L112205 71459
" />
</g>
<g style="fill:#000000; fill-opacity:0.0; 
stroke:#000000; stroke-width:39.3701; stroke-opacity:1; 
stroke-linecap:round; stroke-linejoin:round;">
</g>
<g style="fill:#000000; fill-opacity:0.0; 
stroke:#000000; stroke-width:59.0551; stroke-opacity:1; 
stroke-linecap:round; stroke-linejoin:round;">
<path d="M70221 72289
L70305 72317
L70446 72317
L70502 72289
L70530 72260
L70559 72204
L70559 72148
L70530 72092
L70502 72064
L70446 72036
L70334 72007
L70277 71979
L70249 71951
L70221 71895
L70221 71839
L70249 71782
L70277 71754
L70334 71726
L70474 71726
L70559 71754
" />
<path d="M70812 72317
L70812 71726
" />
<path d="M71065 72317
L71065 72007
L71037 71951
L70980 71923
L70896 71923
L70840 71951
L70812 71979
" />
<path d="M71571 72289
L71515 72317
L71402 72317
L71346 72289
L71318 72232
L71318 72007
L71346 71951
L71402 71923
L71515 71923
L71571 71951
L71599 72007
L71599 72064
L71318 72120
" />
<path d="M72077 72289
L72021 72317
L71908 72317
L71852 72289
L71824 72232
L71824 72007
L71852 71951
L71908 71923
L72021 71923
L72077 71951
L72105 72007
L72105 72064
L71824 72120
" />
<path d="M72274 71923
L72499 71923
" />
<path d="M72358 71726
L72358 72232
L72386 72289
L72443 72317
L72499 72317
" />
<path d="M72696 72260
L72724 72289
L72696 72317
L72668 72289
L72696 72260
L72696 72317
" />
<path d="M72696 71951
L72724 71979
L72696 72007
L72668 71979
L72696 71951
L72696 72007
" />
</g>
<g style="fill:#000000; fill-opacity:0.0; 
stroke:#000000; stroke-width:39.3701; stroke-opacity:1; 
stroke-linecap:round; stroke-linejoin:round;">
</g>
<g style="fill:#000000; fill-opacity:0.0; 
stroke:#000000; stroke-width:118.11; stroke-opacity:1; 
stroke-linecap:round; stroke-linejoin:round;">
<path d="M70296 71136
L70296 70545
" />
<path d="M70550 71108
L70606 71136
L70718 71136
L70775 71108
L70803 71051
L70803 71023
L70775 70967
L70718 70939
L70634 70939
L70578 70911
L70550 70854
L70550 70826
L70578 70770
L70634 70742
L70718 70742
L70775 70770
" />
<path d="M71028 71108
L71084 71136
L71196 71136
L71253 71108
L71281 71051
L71281 71023
L71253 70967
L71196 70939
L71112 70939
L71056 70911
L71028 70854
L71028 70826
L71056 70770
L71112 70742
L71196 70742
L71253 70770
" />
<path d="M71759 71108
L71703 71136
L71590 71136
L71534 71108
L71506 71051
L71506 70826
L71534 70770
L71590 70742
L71703 70742
L71759 70770
L71787 70826
L71787 70883
L71506 70939
" />
<path d="M72040 71136
L72040 70742
" />
<path d="M72040 70545
L72012 70573
L72040 70601
L72068 70573
L72040 70545
L72040 70601
" />
<path d="M72771 71136
L72771 70545
" />
<path d="M73109 71136
L72856 70798
" />
<path d="M73109 70545
L72771 70883
" />
<path d="M73615 70742
L73615 71136
" />
<path d="M73362 70742
L73362 71051
L73390 71108
L73446 71136
L73530 71136
L73587 71108
L73615 71079
" />
<path d="M73840 70742
L74149 70742
L73840 71136
L74149 71136
" />
<path d="M74627 70742
L74627 71136
" />
<path d="M74374 70742
L74374 71051
L74402 71108
L74458 71136
L74543 71136
L74599 71108
L74627 71079
" />
<path d="M74908 71136
L74908 70742
" />
<path d="M74908 70798
L74937 70770
L74993 70742
L75077 70742
L75133 70770
L75162 70826
L75162 71136
" />
<path d="M75162 70826
L75190 70770
L75246 70742
L75330 70742
L75386 70770
L75415 70826
L75415 71136
" />
<path d="M75949 71136
L75949 70826
L75921 70770
L75865 70742
L75752 70742
L75696 70770
" />
<path d="M75949 71108
L75893 71136
L75752 71136
L75696 71108
L75668 71051
L75668 70995
L75696 70939
L75752 70911
L75893 70911
L75949 70883
" />
<path d="M76230 71136
L76230 70545
" />
<path d="M76286 70911
L76455 71136
" />
<path d="M76455 70742
L76230 70967
" />
<path d="M76708 71136
L76708 70742
" />
<path d="M76708 70545
L76680 70573
L76708 70601
L76736 70573
L76708 70545
L76708 70601
" />
</g>
<g style="fill:#000000; fill-opacity:0.0; 
stroke:#000000; stroke-width:39.3701; stroke-opacity:1; 
stroke-linecap:round; stroke-linejoin:round;">
</g>
<g style="fill:#000000; fill-opacity:0.0; 
stroke:#000000; stroke-width:59.0551; stroke-opacity:1; 
stroke-linecap:round; stroke-linejoin:round;">
<path d="M70249 69955
L70249 69364
L70390 69364
L70474 69392
L70530 69448
L70559 69505
L70587 69617
L70587 69701
L70559 69814
L70530 69870
L70474 69926
L70390 69955
L70249 69955
" />
<path d="M70924 69955
L70868 69926
L70840 69898
L70812 69842
L70812 69673
L70840 69617
L70868 69589
L70924 69561
L71009 69561
L71065 69589
L71093 69617
L71121 69673
L71121 69842
L71093 69898
L71065 69926
L71009 69955
L70924 69955
" />
<path d="M71374 69561
L71374 69955
" />
<path d="M71374 69617
L71402 69589
L71458 69561
L71543 69561
L71599 69589
L71627 69645
L71627 69955
" />
<path d="M71937 69364
L71880 69476
" />
<path d="M72105 69561
L72330 69561
" />
<path d="M72190 69364
L72190 69870
L72218 69926
L72274 69955
L72330 69955
" />
<path d="M72893 69561
L73118 69561
" />
<path d="M72977 69955
L72977 69448
L73005 69392
L73061 69364
L73118 69364
" />
<path d="M73399 69955
L73343 69926
L73314 69898
L73286 69842
L73286 69673
L73314 69617
L73343 69589
L73399 69561
L73483 69561
L73539 69589
L73568 69617
L73596 69673
L73596 69842
L73568 69898
L73539 69926
L73483 69955
L73399 69955
" />
<path d="M73849 69955
L73849 69561
" />
<path d="M73849 69673
L73877 69617
L73905 69589
L73961 69561
L74018 69561
" />
<path d="M74467 69561
L74467 70039
L74439 70095
L74411 70123
L74355 70151
L74271 70151
L74214 70123
" />
<path d="M74467 69926
L74411 69955
L74299 69955
L74242 69926
L74214 69898
L74186 69842
L74186 69673
L74214 69617
L74242 69589
L74299 69561
L74411 69561
L74467 69589
" />
<path d="M74974 69926
L74917 69955
L74805 69955
L74749 69926
L74721 69870
L74721 69645
L74749 69589
L74805 69561
L74917 69561
L74974 69589
L75002 69645
L75002 69701
L74721 69758
" />
<path d="M75171 69561
L75395 69561
" />
<path d="M75255 69364
L75255 69870
L75283 69926
L75339 69955
L75395 69955
" />
<path d="M75958 69561
L76183 69561
" />
<path d="M76042 69364
L76042 69870
L76070 69926
L76127 69955
L76183 69955
" />
<path d="M76464 69955
L76408 69926
L76380 69898
L76352 69842
L76352 69673
L76380 69617
L76408 69589
L76464 69561
L76548 69561
L76605 69589
L76633 69617
L76661 69673
L76661 69842
L76633 69898
L76605 69926
L76548 69955
L76464 69955
" />
<path d="M77617 69926
L77561 69955
L77448 69955
L77392 69926
L77364 69898
L77336 69842
L77336 69673
L77364 69617
L77392 69589
L77448 69561
L77561 69561
L77617 69589
" />
<path d="M77870 69955
L77870 69364
" />
<path d="M78123 69955
L78123 69645
L78095 69589
L78039 69561
L77955 69561
L77898 69589
L77870 69617
" />
<path d="M78629 69926
L78573 69955
L78461 69955
L78404 69926
L78376 69870
L78376 69645
L78404 69589
L78461 69561
L78573 69561
L78629 69589
L78658 69645
L78658 69701
L78376 69758
" />
<path d="M79164 69926
L79108 69955
L78995 69955
L78939 69926
L78911 69898
L78883 69842
L78883 69673
L78911 69617
L78939 69589
L78995 69561
L79108 69561
L79164 69589
" />
<path d="M79417 69955
L79417 69364
" />
<path d="M79473 69730
L79642 69955
" />
<path d="M79642 69561
L79417 69786
" />
<path d="M80373 69364
L80317 69476
" />
<path d="M80626 69955
L80626 69364
L80823 69786
L81020 69364
L81020 69955
" />
<path d="M81301 69955
L81301 69561
" />
<path d="M81301 69364
L81273 69392
L81301 69420
L81329 69392
L81301 69364
L81301 69420
" />
<path d="M81582 69955
L81582 69561
" />
<path d="M81582 69673
L81610 69617
L81638 69589
L81695 69561
L81751 69561
" />
<path d="M81948 69955
L81948 69561
" />
<path d="M81948 69673
L81976 69617
L82004 69589
L82060 69561
L82117 69561
" />
<path d="M82398 69955
L82341 69926
L82313 69898
L82285 69842
L82285 69673
L82313 69617
L82341 69589
L82398 69561
L82482 69561
L82538 69589
L82566 69617
L82595 69673
L82595 69842
L82566 69898
L82538 69926
L82482 69955
L82398 69955
" />
<path d="M82848 69955
L82848 69561
" />
<path d="M82848 69673
L82876 69617
L82904 69589
L82960 69561
L83016 69561
" />
<path d="M83241 69364
L83185 69476
" />
<path d="M83888 69561
L84001 69955
L84113 69673
L84226 69955
L84338 69561
" />
<path d="M84563 69955
L84563 69364
" />
<path d="M84816 69955
L84816 69645
L84788 69589
L84732 69561
L84647 69561
L84591 69589
L84563 69617
" />
<path d="M85322 69926
L85266 69955
L85154 69955
L85097 69926
L85069 69870
L85069 69645
L85097 69589
L85154 69561
L85266 69561
L85322 69589
L85350 69645
L85350 69701
L85069 69758
" />
<path d="M85604 69561
L85604 69955
" />
<path d="M85604 69617
L85632 69589
L85688 69561
L85772 69561
L85829 69589
L85857 69645
L85857 69955
" />
<path d="M86532 69561
L86672 69955
" />
<path d="M86813 69561
L86672 69955
L86616 70095
L86588 70123
L86532 70151
" />
<path d="M87122 69955
L87066 69926
L87038 69898
L87010 69842
L87010 69673
L87038 69617
L87066 69589
L87122 69561
L87206 69561
L87263 69589
L87291 69617
L87319 69673
L87319 69842
L87291 69898
L87263 69926
L87206 69955
L87122 69955
" />
<path d="M87825 69561
L87825 69955
" />
<path d="M87572 69561
L87572 69870
L87600 69926
L87656 69955
L87741 69955
L87797 69926
L87825 69898
" />
<path d="M88556 69561
L88556 70151
" />
<path d="M88556 69589
L88613 69561
L88725 69561
L88781 69589
L88809 69617
L88838 69673
L88838 69842
L88809 69898
L88781 69926
L88725 69955
L88613 69955
L88556 69926
" />
<path d="M89091 69955
L89091 69561
" />
<path d="M89091 69673
L89119 69617
L89147 69589
L89203 69561
L89259 69561
" />
<path d="M89456 69955
L89456 69561
" />
<path d="M89456 69364
L89428 69392
L89456 69420
L89484 69392
L89456 69364
L89456 69420
" />
<path d="M89737 69561
L89737 69955
" />
<path d="M89737 69617
L89766 69589
L89822 69561
L89906 69561
L89962 69589
L89991 69645
L89991 69955
" />
<path d="M90187 69561
L90412 69561
" />
<path d="M90272 69364
L90272 69870
L90300 69926
L90356 69955
L90412 69955
" />
<path d="M91059 69955
L91059 69561
" />
<path d="M91059 69364
L91031 69392
L91059 69420
L91087 69392
L91059 69364
L91059 69420
" />
<path d="M91256 69561
L91481 69561
" />
<path d="M91340 69364
L91340 69870
L91368 69926
L91425 69955
L91481 69955
" />
<path d="M91678 69898
L91706 69926
L91678 69955
L91650 69926
L91678 69898
L91678 69955
" />
</g>
<g style="fill:#000000; fill-opacity:0.0; 
stroke:#000000; stroke-width:39.3701; stroke-opacity:1; 
stroke-linecap:round; stroke-linejoin:round;">
</g>
<g style="fill:#000000; fill-opacity:0.0; 
stroke:#000000; stroke-width:59.0551; stroke-opacity:1; 
stroke-linecap:round; stroke-linejoin:round;">
<path d="M70249 68773
L70249 68183
L70474 68183
L70530 68211
L70559 68239
L70587 68295
L70587 68380
L70559 68436
L70530 68464
L70474 68492
L70249 68492
" />
<path d="M70840 68773
L70840 68380
" />
<path d="M70840 68492
L70868 68436
L70896 68408
L70952 68380
L71009 68380
" />
<path d="M71205 68773
L71205 68380
" />
<path d="M71205 68183
L71177 68211
L71205 68239
L71233 68211
L71205 68183
L71205 68239
" />
<path d="M71487 68380
L71487 68773
" />
<path d="M71487 68436
L71515 68408
L71571 68380
L71655 68380
L71712 68408
L71740 68464
L71740 68773
" />
<path d="M71937 68380
L72162 68380
" />
<path d="M72021 68183
L72021 68689
L72049 68745
L72105 68773
L72162 68773
" />
<path d="M72808 68548
L73258 68548
" />
<path d="M73989 68773
L73989 68183
L74186 68605
L74383 68183
L74383 68773
" />
<path d="M74664 68773
L74664 68380
" />
<path d="M74664 68183
L74636 68211
L74664 68239
L74692 68211
L74664 68183
L74664 68239
" />
<path d="M74946 68773
L74946 68380
" />
<path d="M74946 68492
L74974 68436
L75002 68408
L75058 68380
L75114 68380
" />
<path d="M75311 68773
L75311 68380
" />
<path d="M75311 68492
L75339 68436
L75367 68408
L75424 68380
L75480 68380
" />
<path d="M75761 68773
L75705 68745
L75677 68717
L75649 68661
L75649 68492
L75677 68436
L75705 68408
L75761 68380
L75845 68380
L75902 68408
L75930 68436
L75958 68492
L75958 68661
L75930 68717
L75902 68745
L75845 68773
L75761 68773
" />
<path d="M76211 68773
L76211 68380
" />
<path d="M76211 68492
L76239 68436
L76267 68408
L76323 68380
L76380 68380
" />
</g>
<g style="fill:#000000; fill-opacity:0.0; 
stroke:#000000; stroke-width:39.3701; stroke-opacity:1; 
stroke-linecap:round; stroke-linejoin:round;">
</g>
<g style="fill:#000000; fill-opacity:0.0; 
stroke:#000000; stroke-width:59.0551; stroke-opacity:1; 
stroke-linecap:round; stroke-linejoin:round;">
<path d="M77559 75396
L77559 76577
" />
</g>
<g style="fill:#000000; fill-opacity:0.0; 
stroke:#000000; stroke-width:39.3701; stroke-opacity:1; 
stroke-linecap:round; stroke-linejoin:round;">
</g>
<g style="fill:#000000; fill-opacity:0.0; 
stroke:#000000; stroke-width:59.0551; stroke-opacity:1; 
stroke-linecap:round; stroke-linejoin:round;">
<path d="M102756 75396
L102756 77955
" />
</g>
<g style="fill:#C2C200; fill-opacity:0.0; 
stroke:#C2C200; stroke-width:59.0551; stroke-opacity:1; 
stroke-linecap:round; stroke-linejoin:round;">
<path d="M45000 41500
L45000 25000
" />
<path d="M61500 41500
L45000 41500
" />
<path d="M61500 25000
L61500 41500
" />
<path d="M45000 25000
L61500 25000
" />
</g> 
</svg>
